<?xml version="1.0" encoding="UTF-8" standalone="no"?>
<svg width="150px" height="150px" viewBox="0 0 150 150" version="1.1" xmlns="http://www.w3.org/2000/svg" xmlns:xlink="http://www.w3.org/1999/xlink">
    <!-- Generator: Sketch 3.7.2 (28276) - http://www.bohemiancoding.com/sketch -->
    <title>em-home-safe</title>
    <desc>Created with Sketch.</desc>
    <defs></defs>
    <g id="新首页" stroke="none" stroke-width="1" fill="none" fill-rule="evenodd">
        <g id="登录后首页" transform="translate(-794.000000, -2401.000000)">
            <g id="whyChooseUS" transform="translate(0.000000, 2367.000000)">
                <g id="em-home-safe" transform="translate(794.000000, 34.000000)">
                    <g id="bg" transform="translate(31.000000, 31.000000)" fill="#EDEDED" opacity="0.5">
                        <path d="M2.3659,69.9634 C2.5764,69.98 2.78,70.0176 2.9779,70.0935 C3.5031,70.2951 3.9267,70.7188 4.1283,71.244 C4.1909,71.4069 4.232,71.578 4.2502,71.7516 C4.26,71.8443 4.2587,71.8677 4.2612,71.9607 L4.2612,83.8722 L16.2334,83.8722 L16.3381,83.8749 C16.443,83.8832 16.546,83.894 16.6492,83.9159 C16.8883,83.9667 17.1177,84.0617 17.3227,84.1949 C17.4984,84.309 17.6559,84.4508 17.7877,84.6136 C17.8975,84.7492 17.9895,84.8993 18.0605,85.0587 C18.2747,85.5399 18.2893,86.0972 18.1006,86.5889 C18.013,86.8172 17.8833,87.0288 17.7197,87.2105 C17.5561,87.3921 17.3592,87.5432 17.1414,87.6542 C16.9547,87.7493 16.7532,87.8148 16.5463,87.8476 C16.4421,87.8641 16.3387,87.8695 16.2334,87.8722 L2.2612,87.8722 C2.0501,87.8667 1.8447,87.8398 1.6431,87.7743 C1.0739,87.5894 0.6085,87.1477 0.394,86.5889 C0.3315,86.426 0.2904,86.2549 0.2721,86.0813 C0.2624,85.9886 0.2636,85.9652 0.2612,85.8722 L0.2612,71.9607 C0.2636,71.8677 0.2624,71.8443 0.2721,71.7516 C0.2904,71.578 0.3315,71.4069 0.394,71.244 C0.5956,70.7188 1.0193,70.2951 1.5444,70.0935 C1.7423,70.0176 1.946,69.98 2.1565,69.9634 C2.2612,69.9607 2.2608,69.9607 2.3659,69.9634 L2.3659,69.9634 Z" id="Fill-1"></path>
                        <path d="M86.199,0.406 C86.292,0.413 86.315,0.413 86.407,0.428 C86.58,0.455 86.749,0.505 86.908,0.576 C87.422,0.805 87.823,1.25 87.997,1.785 C88.062,1.987 88.089,2.192 88.095,2.403 L88.095,16.3147 C88.092,16.42 88.086,16.5234 88.07,16.6276 C88.032,16.869 87.949,17.103 87.827,17.3147 C87.739,17.4659 87.632,17.6055 87.509,17.7289 C87.111,18.1267 86.552,18.3414 85.99,18.312 C85.781,18.301 85.573,18.257 85.378,18.1819 C85.15,18.0943 84.938,17.9646 84.756,17.801 C84.575,17.6374 84.423,17.4405 84.312,17.2227 C84.217,17.036 84.152,16.8345 84.119,16.6276 C84.103,16.5234 84.097,16.42 84.095,16.3147 L84.095,4.403 L72.1223,4.403 L72.0176,4.4 C71.9126,4.392 71.8096,4.381 71.7065,4.36 C71.5015,4.316 71.3037,4.24 71.1223,4.135 C70.9106,4.013 70.7218,3.852 70.568,3.662 C70.4141,3.472 70.2957,3.254 70.2202,3.021 C70.1554,2.822 70.1223,2.613 70.1223,2.403 C70.1223,1.876 70.3356,1.361 70.7081,0.989 C70.8315,0.866 70.9711,0.758 71.1223,0.671 C71.334,0.549 71.568,0.466 71.8094,0.428 C71.9136,0.411 72.017,0.406 72.1223,0.403 C76.8146,0.403 81.5085,0.283 86.199,0.406 L86.199,0.406 Z" id="Fill-2"></path>
                        <path d="M86.199,69.9634 C86.292,69.9707 86.315,69.9708 86.407,69.9853 C86.58,70.0126 86.749,70.0626 86.908,70.1336 C87.422,70.3624 87.823,70.8076 87.997,71.3427 C88.062,71.5442 88.089,71.7496 88.095,71.9607 L88.095,85.8722 C88.089,86.0833 88.062,86.2887 87.997,86.4902 C87.812,87.0595 87.37,87.5249 86.811,87.7394 C86.648,87.8019 86.477,87.843 86.304,87.8613 C86.211,87.871 86.187,87.8698 86.095,87.8722 L72.1223,87.8722 C72.017,87.8695 71.9136,87.8641 71.8094,87.8476 C71.568,87.8093 71.334,87.7265 71.1223,87.6043 C70.9711,87.517 70.8315,87.4099 70.7081,87.2864 C70.3103,86.8886 70.0956,86.3293 70.125,85.7675 C70.136,85.5583 70.18,85.3511 70.2551,85.1555 C70.3427,84.9272 70.4724,84.7156 70.636,84.5339 C70.7996,84.3523 70.9965,84.2012 71.2143,84.0902 C71.401,83.9951 71.6025,83.9296 71.8094,83.8968 C71.9136,83.8803 72.017,83.875 72.1223,83.8722 L84.095,83.8722 L84.095,71.9607 L84.097,71.856 C84.114,71.6455 84.151,71.4418 84.227,71.244 C84.429,70.7188 84.853,70.2951 85.378,70.0935 C85.576,70.0176 85.779,69.98 85.99,69.9634 C86.095,69.9607 86.094,69.9607 86.199,69.9634 L86.199,69.9634 Z" id="Fill-3"></path>
                        <path d="M16.3381,0.406 C16.443,0.414 16.546,0.425 16.6492,0.447 C16.8883,0.498 17.1177,0.593 17.3227,0.726 C17.4984,0.84 17.6559,0.982 17.7877,1.145 C18.1192,1.554 18.2775,2.088 18.2224,2.612 C18.2042,2.786 18.1631,2.957 18.1006,3.12 C18.013,3.348 17.8833,3.56 17.7197,3.741 C17.5561,3.923 17.3592,4.074 17.1414,4.185 C16.9547,4.28 16.7532,4.346 16.5463,4.379 C16.4421,4.395 16.3387,4.4 16.2334,4.403 L4.2612,4.403 L4.2612,16.3147 L4.2584,16.4194 C4.2502,16.5244 4.2394,16.6274 4.2175,16.7305 C4.1667,16.9697 4.0717,17.199 3.9385,17.404 C3.8244,17.5797 3.6826,17.7372 3.5198,17.869 C3.1105,18.2005 2.576,18.3588 2.0521,18.3038 C1.8785,18.2855 1.7074,18.2444 1.5444,18.1819 C1.3162,18.0943 1.1046,17.9646 0.9229,17.801 C0.7413,17.6374 0.5901,17.4405 0.4792,17.2227 C0.3841,17.036 0.3186,16.8345 0.2858,16.6276 C0.2693,16.5234 0.2639,16.42 0.2612,16.3147 L0.2612,2.403 C0.2636,2.31 0.2624,2.287 0.2721,2.194 C0.2904,2.021 0.3315,1.849 0.394,1.686 C0.6085,1.128 1.0739,0.686 1.6431,0.501 C1.8447,0.436 2.0501,0.409 2.2612,0.403 C6.9535,0.403 11.6474,0.283 16.3381,0.406 L16.3381,0.406 Z" id="Fill-4"></path>
                    </g>
                    <g id="bg" transform="translate(14.000000, 14.000000)" fill="#EDEDED">
                        <path d="M11.9891,49.1895 C12.0979,49.2013 12.1256,49.2018 12.233,49.2236 C12.4746,49.2726 12.7066,49.3666 12.9142,49.4996 C13.0871,49.6104 13.2427,49.7479 13.3739,49.9059 C13.5052,50.0639 13.6117,50.2421 13.6889,50.4325 C13.8749,50.8915 13.8829,51.4128 13.7111,51.8773 C13.6399,52.0699 13.5388,52.2513 13.4126,52.4133 C13.3452,52.4997 13.3244,52.5181 13.2495,52.5978 L4.8268,61.0205 L13.2924,69.4862 L13.3768,69.5759 C13.4561,69.6714 13.5308,69.767 13.5947,69.8738 C13.7423,70.1207 13.8357,70.3992 13.8666,70.6852 C13.8887,70.8894 13.8791,71.0968 13.8383,71.2981 C13.7974,71.4994 13.7254,71.6942 13.6255,71.8736 C13.3845,72.3062 12.9834,72.6393 12.5138,72.7967 C12.3191,72.862 12.1144,72.897 11.909,72.9001 C11.6625,72.9039 11.4158,72.8617 11.1845,72.7762 C10.9919,72.705 10.8105,72.6039 10.6485,72.4777 C10.5621,72.4103 10.5437,72.3896 10.464,72.3146 L0.5842,62.4347 C0.5106,62.3566 0.4903,62.3386 0.424,62.254 C0.3246,62.1271 0.2407,61.9883 0.1746,61.8414 C-0.0757,61.2854 -0.0559,60.6309 0.2275,60.0911 C0.3223,59.9104 0.4448,59.7543 0.5842,59.6063 L10.4211,49.7694 C10.5115,49.6844 10.6023,49.6039 10.705,49.5336 C10.9424,49.371 11.2145,49.2607 11.4981,49.2122 C11.6208,49.1913 11.742,49.1858 11.8661,49.1839 C11.9071,49.1857 11.9481,49.1876 11.9891,49.1895 L11.9891,49.1895 Z" id="Fill-5"></path>
                        <path d="M110.512,49.4004 C110.635,49.41 110.756,49.4229 110.877,49.4514 C111.117,49.5079 111.346,49.609 111.549,49.7483 C111.652,49.8186 111.743,49.8991 111.833,49.9841 L121.713,59.864 C121.853,60.012 121.975,60.168 122.07,60.3487 C122.353,60.8886 122.373,61.543 122.123,62.099 C122.057,62.2459 121.973,62.3848 121.873,62.5116 C121.807,62.5962 121.787,62.6142 121.713,62.6924 L111.876,72.5293 C111.797,72.6042 111.778,72.625 111.692,72.6924 C111.53,72.8186 111.348,72.9197 111.156,72.9909 C110.925,73.0764 110.678,73.1186 110.431,73.1148 C110.226,73.1117 110.021,73.0767 109.826,73.0114 C109.632,72.9461 109.447,72.8507 109.282,72.7295 C108.848,72.4124 108.555,71.9235 108.481,71.3914 C108.453,71.188 108.456,70.9803 108.491,70.7779 C108.539,70.4943 108.649,70.2222 108.812,69.9848 C108.882,69.8821 108.963,69.7913 109.048,69.7009 L117.471,61.2782 L109.005,52.8125 L108.921,52.7228 C108.851,52.6386 108.831,52.619 108.769,52.5286 C108.63,52.3252 108.529,52.0962 108.472,51.8562 C108.425,51.6563 108.409,51.4492 108.425,51.2445 C108.463,50.7507 108.688,50.2805 109.049,49.9412 C109.199,49.8005 109.37,49.6832 109.555,49.5945 C109.741,49.5058 109.939,49.4459 110.143,49.4175 C110.251,49.4024 110.279,49.4036 110.388,49.3985 C110.429,49.3992 110.47,49.3998 110.512,49.4004 L110.512,49.4004 Z" id="Fill-6"></path>
                        <path d="M51.49,108.4219 C51.6137,108.4315 51.7344,108.4444 51.8555,108.4729 C52.0955,108.5293 52.3245,108.6305 52.5279,108.7698 C52.6306,108.8401 52.7214,108.9205 52.8118,109.0056 L61.2775,117.4712 L69.7002,109.0485 L69.7899,108.9641 C69.8741,108.8942 69.8937,108.8747 69.9841,108.8127 C70.1536,108.6967 70.3408,108.607 70.5375,108.5477 C70.7735,108.4766 71.0224,108.4497 71.2682,108.4687 C71.473,108.4844 71.6752,108.532 71.8655,108.6091 C72.3245,108.7951 72.7043,109.1523 72.9182,109.5989 C73.0069,109.7842 73.0668,109.983 73.0952,110.1864 C73.1236,110.3898 73.1204,110.5975 73.0858,110.7999 C73.0373,111.0835 72.927,111.3556 72.7644,111.593 C72.6941,111.6957 72.6136,111.7865 72.5286,111.8769 L62.6917,121.7138 C62.6135,121.7874 62.5955,121.8077 62.5109,121.874 C62.3841,121.9734 62.2452,122.0573 62.0983,122.1234 C61.5423,122.3737 60.8879,122.3539 60.348,122.0705 C60.1673,121.9757 60.0113,121.8532 59.8633,121.7138 L49.9834,111.834 C49.9084,111.7543 49.8877,111.7359 49.8203,111.6495 C49.6688,111.4551 49.5537,111.2327 49.4826,110.9967 C49.4234,110.8 49.3947,110.5943 49.3979,110.389 C49.4061,109.8518 49.6362,109.3307 50.0276,108.9627 C50.1773,108.822 50.3486,108.7046 50.5338,108.6159 C50.7191,108.5272 50.9179,108.4673 51.1213,108.439 C51.2298,108.4238 51.2575,108.4251 51.3668,108.42 C51.4079,108.4206 51.4489,108.4213 51.49,108.4219 L51.49,108.4219 Z" id="Fill-7"></path>
                        <path d="M61.1406,0.003 C61.2618,0.014 61.38,0.028 61.4985,0.057 C61.7332,0.115 61.957,0.216 62.156,0.353 C62.2564,0.422 62.3454,0.501 62.434,0.585 L72.3139,10.465 C72.3889,10.544 72.4096,10.563 72.477,10.649 C72.6033,10.811 72.7043,10.993 72.7755,11.185 C72.861,11.416 72.9032,11.663 72.8995,11.91 C72.8912,12.447 72.6611,12.968 72.2697,13.336 C72.12,13.477 71.9487,13.594 71.7635,13.683 C71.5783,13.771 71.3794,13.831 71.176,13.86 C70.9726,13.888 70.765,13.885 70.5625,13.85 C70.2789,13.802 70.0068,13.691 69.7694,13.529 C69.6667,13.459 69.5759,13.378 69.4855,13.293 L61.0198,4.827 L52.5971,13.25 L52.5074,13.335 C52.4232,13.404 52.4036,13.424 52.3132,13.486 C52.1438,13.602 51.9565,13.692 51.7598,13.751 C51.5238,13.822 51.2749,13.849 51.0291,13.83 C50.8243,13.814 50.6222,13.767 50.4318,13.69 C50.2415,13.612 50.0632,13.506 49.9052,13.375 C49.5242,13.058 49.2705,12.603 49.2021,12.112 C49.1737,11.909 49.1769,11.701 49.2115,11.499 C49.2601,11.215 49.3703,10.943 49.5329,10.706 C49.6033,10.603 49.6837,10.512 49.7687,10.422 L59.6056,0.585 C59.6942,0.501 59.7833,0.422 59.8837,0.353 C60.0827,0.216 60.3065,0.115 60.5412,0.057 C60.6597,0.028 60.7779,0.014 60.8991,0.003 C61.0203,-0.001 61.0198,-0.001 61.1406,0.003 L61.1406,0.003 Z" id="Fill-8"></path>
                    </g>
                    <g id="shield" transform="translate(44.000000, 41.000000)" stroke="#CDB05D" stroke-linecap="round">
                        <path d="M31.0220649,0.0570878973 L32.1689107,0.0570878973 C32.1689107,0.0570878973 39.0499857,10.3535022 47.0779064,10.3535022 L61.9869022,10.3535022 L61.9869022,14.9296864 C61.9869022,58.4034358 31.0220649,70.9879423 31.0220649,70.9879423 C31.0220649,70.9879423 0.0572276067,58.4034358 0.0572276067,14.9296864 L0.0572276067,10.3535022 L14.9662233,10.3535022 C22.9941441,10.3535022 29.8752191,0.0570878973 29.8752191,0.0570878973 L31.0220649,0.0570878973 Z" id="Stroke-1" stroke-width="4"></path>
                        <path d="M31.0220649,64.123666 C31.0220649,64.123666 56.252673,50.3951136 56.252673,16.0737324 L47.0779064,16.0737324 C35.6094482,16.0737324 31.0220649,8.06541016 31.0220649,8.06541016 C31.0220649,8.06541016 26.4346816,16.0737324 14.9662233,16.0737324 L5.79145673,16.0737324 C5.79145673,50.3951136 31.0220649,64.123666 31.0220649,64.123666 L31.0220649,64.123666 Z" id="Stroke-2" stroke-width="2"></path>
                        <path d="M19.5536066,16.0737324 C19.5536066,46.9629755 31.0220649,64.123666 31.0220649,64.123666" id="Stroke-3" stroke-width="2"></path>
                        <path d="M42.4905231,16.0737324 C42.4905231,46.9629755 31.0220649,64.123666 31.0220649,64.123666" id="Stroke-4" stroke-width="2"></path>
                        <path d="M30,19.5058705 L30,21.7939626" id="Stroke-5" stroke-width="2"></path>
                        <path d="M30,14.9296864 L30,17.2177785" id="Stroke-6" stroke-width="2"></path>
                        <path d="M30,24.0820547 L30,26.3701468" id="Stroke-7" stroke-width="2"></path>
                        <path d="M12,19.5058705 L12,21.7939626" id="Stroke-8" stroke-width="2"></path>
                        <path d="M12,24.0820547 L12,26.3701468" id="Stroke-9" stroke-width="2"></path>
                        <path d="M49,19.5058705 L49,21.7939626" id="Stroke-10" stroke-width="2"></path>
                        <path d="M49,24.0820547 L49,26.3701468" id="Stroke-11" stroke-width="2"></path>
                    </g>
                </g>
            </g>
        </g>
    </g>
</svg>