<?xml version="1.0" encoding="UTF-8" standalone="no"?>
<svg width="150px" height="150px" viewBox="0 0 150 150" version="1.1" xmlns="http://www.w3.org/2000/svg" xmlns:xlink="http://www.w3.org/1999/xlink">
    <!-- Generator: Sketch 3.7.2 (28276) - http://www.bohemiancoding.com/sketch -->
    <title>em-home-eff</title>
    <desc>Created with Sketch.</desc>
    <defs></defs>
    <g id="新首页" stroke="none" stroke-width="1" fill="none" fill-rule="evenodd">
        <g id="登录后首页" transform="translate(-497.000000, -2401.000000)">
            <g id="Group-18" transform="translate(497.000000, 2401.000000)">
                <path d="M88.049177,125.566217 C116.054863,118.062116 132.694455,89.3402392 125.211106,61.4120001 C124.925222,60.3450679 123.828548,59.7119029 122.761616,59.9977866 C121.694684,60.2836702 121.061519,61.3803441 121.347403,62.4472763 C128.258294,88.2390738 112.888291,114.769492 87.0139008,121.702514 C85.9469686,121.988397 85.3138036,123.085071 85.5996873,124.152003 C85.8855709,125.218936 86.9822448,125.852101 88.049177,125.566217 L88.049177,125.566217 Z M60.950823,24.433783 C32.9451369,31.937884 16.305545,60.6597608 23.7888941,88.5879999 C24.0747777,89.6549321 25.1714517,90.2880971 26.2383839,90.0022134 C27.3053161,89.7163298 27.938481,88.6196559 27.6525974,87.5527237 C20.7417061,61.7609262 36.1117088,35.2305083 61.9860992,28.2974863 C63.0530314,28.0116027 63.6861964,26.9149288 63.4003127,25.8479966 C63.1144291,24.7810643 62.0177552,24.1478994 60.950823,24.433783 L60.950823,24.433783 Z" id="Combined-Shape" fill="#EDEDED" opacity="0.5"></path>
                <path d="M74.5,33.3 C79.2868749,33.3 83.1698113,29.4285971 83.1698113,24.65 C83.1698113,19.8714029 79.2868749,16 74.5,16 C69.7131251,16 65.8301887,19.8714029 65.8301887,24.65 C65.8301887,29.4285971 69.7131251,33.3 74.5,33.3 L74.5,33.3 Z M74.5,29.3 C71.9196048,29.3 69.8301887,27.2167901 69.8301887,24.65 C69.8301887,22.0832099 71.9196048,20 74.5,20 C77.0803952,20 79.1698113,22.0832099 79.1698113,24.65 C79.1698113,27.2167901 77.0803952,29.3 74.5,29.3 L74.5,29.3 Z" id="Oval-7" fill="#EDEDED"></path>
                <path d="M74.5,134 C79.2868749,134 83.1698113,130.128597 83.1698113,125.35 C83.1698113,120.571403 79.2868749,116.7 74.5,116.7 C69.7131251,116.7 65.8301887,120.571403 65.8301887,125.35 C65.8301887,130.128597 69.7131251,134 74.5,134 L74.5,134 Z M74.5,130 C71.9196048,130 69.8301887,127.91679 69.8301887,125.35 C69.8301887,122.78321 71.9196048,120.7 74.5,120.7 C77.0803952,120.7 79.1698113,122.78321 79.1698113,125.35 C79.1698113,127.91679 77.0803952,130 74.5,130 L74.5,130 Z" id="Oval-7-Copy" fill="#EDEDED"></path>
                <g id="time" transform="translate(43.000000, 40.000000)" stroke="#CDB05D">
                    <g id="Group">
                        <path d="M35.2,35.578125 L48,35.578125" id="Shape" stroke-width="2"></path>
                        <polyline id="Shape" stroke-width="2" points="29.8666667 9.703125 29.8666667 5.390625 26.6666667 5.390625 26.6666667 0 37.3333333 0 37.3333333 5.390625 34.1333333 5.390625 34.1333333 9.703125"></polyline>
                        <path d="M40.8253793,4.43864062 C54.2068966,8.31350288 64,20.7784616 64,35.5569541 C64,53.4313187 49.6728276,67.921875 32,67.921875 C14.3271724,67.921875 0,53.4313187 0,35.5569541 C0,20.7795776 9.792,8.31461891 23.1724138,4.43864062" id="Shape" stroke-width="4"></path>
                        <ellipse id="Oval" stroke-width="2" cx="32" cy="35.578125" rx="25.6" ry="25.875"></ellipse>
                        <g transform="translate(53.333333, 4.312500)">
                            <path d="M3.2,5.390625 L0,8.625" id="Shape" stroke-width="2"></path>
                            <rect id="Rectangle-path" stroke-width="1.99998082" transform="translate(4.799680, 3.773769) rotate(45.000000) translate(-4.799680, -3.773769) " x="1.78264227" y="1.48654834" width="6.03407547" height="4.57444051"></rect>
                        </g>
                        <g transform="translate(1.066667, 4.312500)">
                            <path d="M6.4,5.390625 L9.6,8.625" id="Shape" stroke-width="2"></path>
                            <rect id="Rectangle-path" stroke-width="1.99998082" transform="translate(4.799352, 3.773438) rotate(135.000000) translate(-4.799352, -3.773438) " x="1.78231469" y="1.48621725" width="6.03407547" height="4.57444051"></rect>
                        </g>
                        <ellipse id="Oval" stroke-width="2" cx="32" cy="35.578125" rx="3.2" ry="3.234375"></ellipse>
                        <path d="M54.4,35.578125 L52.2666667,35.578125" id="Shape" stroke-width="2"></path>
                        <path d="M11.7333333,35.578125 L9.6,35.578125" id="Shape" stroke-width="2"></path>
                        <path d="M18.1333333,20.484375 L16,20.484375" id="Shape" stroke-width="2"></path>
                        <path d="M48,50.671875 L45.8666667,50.671875" id="Shape" stroke-width="2"></path>
                        <path d="M45.8666667,20.484375 L48,20.484375" id="Shape" stroke-width="2"></path>
                        <path d="M16,50.671875 L18.1333333,50.671875" id="Shape" stroke-width="2"></path>
                        <path d="M32,58.21875 L32,56.0625" id="Shape" stroke-width="2"></path>
                        <path d="M32,15.09375 L32,12.9375" id="Shape" stroke-width="2"></path>
                    </g>
                </g>
            </g>
        </g>
    </g>
</svg>