<?xml version="1.0" encoding="UTF-8" standalone="no"?>
<svg width="150px" height="150px" viewBox="0 0 150 150" version="1.1" xmlns="http://www.w3.org/2000/svg" xmlns:xlink="http://www.w3.org/1999/xlink">
    <!-- Generator: Sketch 3.7.2 (28276) - http://www.bohemiancoding.com/sketch -->
    <title>em-home-quality</title>
    <desc>Created with Sketch.</desc>
    <defs></defs>
    <g id="新首页" stroke="none" stroke-width="1" fill="none" fill-rule="evenodd">
        <g id="登录后首页" transform="translate(-195.000000, -2401.000000)">
            <g id="whyChooseUS" transform="translate(0.000000, 2367.000000)">
                <g id="Group-16" transform="translate(195.000000, 34.000000)">
                    <g id="circle" transform="translate(20.000000, 22.000000)" fill="#EDEDED">
                        <path d="M27.307192,98.8563126 C12.951445,89.4013322 4.08597463,73.2265191 4.08597463,55.6239464 C4.08597463,27.1590656 27.1042697,4.08617854 55.4970686,4.08617854 C83.8898674,4.08617854 106.908162,27.1590656 106.908162,55.6239464 C106.908162,73.2265191 98.0426921,89.4013322 83.6869451,98.8563126 C82.7644761,99.463869 82.5091891,100.7042 83.1167455,101.626669 C83.7243019,102.549138 84.9646325,102.804425 85.8871015,102.196868 C101.357489,92.0077636 110.908162,74.5828153 110.908162,55.6239464 C110.908162,24.952045 86.1011303,0.086178536 55.4970686,0.086178536 C24.8930068,0.086178536 0.0859746318,24.952045 0.0859746318,55.6239464 C0.0859746318,74.5828153 9.63664833,92.0077636 25.1070356,102.196868 C26.0295046,102.804425 27.2698352,102.549138 27.8773916,101.626669 C28.484948,100.7042 28.229661,99.463869 27.307192,98.8563126 L27.307192,98.8563126 Z" id="Stroke-1" opacity="0.5"></path>
                        <path d="M54.7132353,112.030656 C64.6311538,112.030656 72.2911765,110.089095 72.2911765,106.082167 C72.2911765,102.075238 64.6311538,100.133678 54.7132353,100.133678 C44.7953168,100.133678 37.1352941,102.075238 37.1352941,106.082167 C37.1352941,110.089095 44.7953168,112.030656 54.7132353,112.030656 L54.7132353,112.030656 Z M54.7132353,108.030656 C50.6813982,108.030656 46.9186568,107.627262 44.1893616,106.935477 C42.9424587,106.619428 41.9788627,106.257906 41.387547,105.903553 C41.1771643,105.777478 41.050378,105.674158 41.0079453,105.621598 C41.0693509,105.697659 41.1352941,105.862243 41.1352941,106.082167 C41.1352941,106.302091 41.0693509,106.466675 41.0079453,106.542735 C41.050378,106.490176 41.1771643,106.386855 41.387547,106.26078 C41.9788627,105.906427 42.9424587,105.544905 44.1893616,105.228857 C46.9186568,104.537071 50.6813982,104.133678 54.7132353,104.133678 C58.7450724,104.133678 62.5078138,104.537071 65.237109,105.228857 C66.4840119,105.544905 67.4476079,105.906427 68.0389236,106.26078 C68.2493063,106.386855 68.3760926,106.490176 68.4185253,106.542735 C68.3571197,106.466675 68.2911765,106.302091 68.2911765,106.082167 C68.2911765,105.862243 68.3571197,105.697659 68.4185253,105.621598 C68.3760926,105.674158 68.2493063,105.777478 68.0389236,105.903553 C67.4476079,106.257906 66.4840119,106.619428 65.237109,106.935477 C62.5078138,107.627262 58.7450724,108.030656 54.7132353,108.030656 L54.7132353,108.030656 Z" id="Oval-9"></path>
                    </g>
                    <g id="dam" transform="translate(41.000000, 53.000000)" stroke="#CDB05D" stroke-linejoin="round">
                        <polygon id="Stroke-1" stroke-width="4" points="34.5835451 55.6175932 0 15.3427843 11.5278484 0 57.6392418 0 69.1670901 15.3427843"></polygon>
                        <path d="M0,15.0927628 L69.1670901,15.0927628" id="Stroke-2" stroke-width="2"></path>
                        <path d="M11.9390653,0 L23.4669137,15.3427843" id="Stroke-3" stroke-width="2"></path>
                        <path d="M23.1319391,15.3427843 L34.6597874,0" id="Stroke-4" stroke-width="2"></path>
                        <path d="M35.0710044,0 L46.5988528,15.3427843" id="Stroke-5" stroke-width="2"></path>
                        <path d="M46.2638782,15.3427843 L57.7917265,0" id="Stroke-6" stroke-width="2"></path>
                        <path d="M23.1319391,15.8474009 L34.6597874,56.1222098" id="Stroke-7" stroke-width="2"></path>
                        <path d="M35.0710044,56.1222098 L46.5988528,15.8474009" id="Stroke-8" stroke-width="2"></path>
                    </g>
                    <path d="M120.574121,30.4832804 L120.574121,32.7577316 C120.574121,33.8623011 121.469551,34.7577316 122.574121,34.7577316 C123.67869,34.7577316 124.574121,33.8623011 124.574121,32.7577316 L124.574121,30.4832804 L126.857019,30.4832804 C127.961588,30.4832804 128.857019,29.5878499 128.857019,28.4832804 C128.857019,27.3787109 127.961588,26.4832804 126.857019,26.4832804 L124.574121,26.4832804 L124.574121,24.3319147 C124.574121,23.2273452 123.67869,22.3319147 122.574121,22.3319147 C121.469551,22.3319147 120.574121,23.2273452 120.574121,24.3319147 L120.574121,26.4832804 L118.608695,26.4832804 C117.504126,26.4832804 116.608695,27.3787109 116.608695,28.4832804 C116.608695,29.5878499 117.504126,30.4832804 118.608695,30.4832804 L120.574121,30.4832804 Z M92.8423077,15.8722212 L92.8423077,19.8259211 C92.8423077,20.9304906 93.7377382,21.8259211 94.8423077,21.8259211 C95.9468772,21.8259211 96.8423077,20.9304906 96.8423077,19.8259211 L96.8423077,15.8722212 L100.87009,15.8722212 C101.97466,15.8722212 102.87009,14.9767907 102.87009,13.8722212 C102.87009,12.7676517 101.97466,11.8722212 100.87009,11.8722212 L96.8423077,11.8722212 L96.8423077,8.08996181 C96.8423077,6.98539231 95.9468772,6.08996181 94.8423077,6.08996181 C93.7377382,6.08996181 92.8423077,6.98539231 92.8423077,8.08996181 L92.8423077,11.8722212 L89.2613384,11.8722212 C88.1567689,11.8722212 87.2613384,12.7676517 87.2613384,13.8722212 C87.2613384,14.9767907 88.1567689,15.8722212 89.2613384,15.8722212 L92.8423077,15.8722212 Z" id="Combined-Shape" fill="#EDEDED"></path>
                </g>
            </g>
        </g>
    </g>
</svg>